<mxfile host="app.diagrams.net" modified="2023-11-24T19:25:29.897Z" agent="Mozilla/5.0 (X11; Ubuntu; Linux x86_64; rv:109.0) Gecko/20100101 Firefox/119.0" version="21.6.2" etag="RsF3xUSgklI1Q3887AD9" type="github">
  <diagram name="Seite-1" id="mY5jbo71RofvWNdh9o-6">
    <mxGraphModel>
      <root>
        <mxCell id="0" />
        <mxCell id="1" parent="0" />
      </root>
    </mxGraphModel>
  </diagram>
</mxfile>
